<svg height="512" viewBox="0 0 128 128" width="512" xmlns="http://www.w3.org/2000/svg"><g id="Circle_Grid" data-name="Circle Grid"><circle cx="64" cy="64" fill="#69b0ee" r="64"/></g><g id="icon"><path d="m48.282 58.834v-16.415a15.718 15.718 0 0 1 31.436 0v16.415h8.7v-16.415a24.42 24.42 0 0 0 -48.84 0v16.415z" fill="#eeefee"/><rect fill="#575b6d" height="46.982" rx="4.021" width="64.6" x="31.7" y="57.018"/><path d="m59.333 91.928a3 3 0 0 1 -2.121-.879l-7.5-7.5a3 3 0 1 1 4.238-4.249l5.383 5.383 14.717-14.714a3 3 0 0 1 4.242 4.242l-16.838 16.838a3 3 0 0 1 -2.121.879z" fill="#eeefee"/></g></svg>