<svg height="512" viewBox="0 0 128 128" width="512" xmlns="http://www.w3.org/2000/svg"><g id="Circle_Grid" data-name="Circle Grid"><circle cx="64" cy="64" fill="#f6c863" r="64"/></g><g id="icon"><path d="m92.085 59.612v28.078h-56.165v-28.078a28.082 28.082 0 0 1 56.165 0z" fill="#da364c"/><path d="m84.915 66.782v20.908h-48.995v-28.078a27.926 27.926 0 0 1 4.98-15.957 28.082 28.082 0 0 1 44.015 23.127z" fill="#ef5261"/><rect fill="#575b6d" height="12.6" rx="1.608" width="68.059" x="29.97" y="86.368"/><rect fill="#eeefee" height="10.182" rx="1.553" width="3.107" x="62.447" y="16.968"/><g fill="#ef5261"><rect height="10.182" rx="1.553" transform="matrix(.866 -.5 .5 .866 -7.486 26.241)" width="3.107" x="43.67" y="21.999"/><rect height="10.182" rx="1.553" transform="matrix(.5 -.866 .866 .5 -19.625 47.678)" width="3.107" x="29.925" y="35.744"/><rect height="10.182" rx="1.553" transform="matrix(0 -1 1 0 -33.164 86.059)" width="3.107" x="24.894" y="54.52"/><rect height="10.182" rx="1.553" transform="matrix(0 1 -1 0 161.164 -41.941)" width="3.107" x="99.999" y="54.52"/><rect height="10.182" rx="1.553" transform="matrix(.5 .866 -.866 .5 83.625 -63.173)" width="3.107" x="94.968" y="35.744"/><rect height="10.182" rx="1.553" transform="matrix(.866 .5 -.5 .866 24.635 -37.759)" width="3.107" x="81.223" y="21.999"/><rect height="10.182" rx="1.553" width="3.107" x="62.447" y="16.968"/></g></g></svg>